<mxfile host="app.diagrams.net" agent="Mozilla/5.0 (Windows NT 10.0; Win64; x64) AppleWebKit/537.36 (KHTML, like Gecko) Chrome/132.0.0.0 Safari/537.36" version="26.0.11">
  <diagram name="‫صفحه - 1‬" id="RXi-Lgme_lUzqoEB9V9k">
    <mxGraphModel dx="4797" dy="1300" grid="1" gridSize="10" guides="1" tooltips="1" connect="1" arrows="1" fold="1" page="1" pageScale="1" pageWidth="1654" pageHeight="2336" math="0" shadow="0">
      <root>
        <mxCell id="0" />
        <mxCell id="1" parent="0" />
        <mxCell id="M4nO-s76nfAPWOyAmxNV-1" value="&lt;b&gt;&lt;font style=&quot;font-size: 20px;&quot;&gt;START&lt;/font&gt;&lt;/b&gt;" style="ellipse;whiteSpace=wrap;html=1;fillColor=#f8cecc;strokeColor=#b85450;" vertex="1" parent="1">
          <mxGeometry x="584" y="40" width="96" height="70" as="geometry" />
        </mxCell>
        <mxCell id="M4nO-s76nfAPWOyAmxNV-15" value="" style="edgeStyle=orthogonalEdgeStyle;rounded=0;orthogonalLoop=1;jettySize=auto;html=1;" edge="1" parent="1" source="M4nO-s76nfAPWOyAmxNV-2" target="M4nO-s76nfAPWOyAmxNV-5">
          <mxGeometry relative="1" as="geometry" />
        </mxCell>
        <mxCell id="M4nO-s76nfAPWOyAmxNV-2" value="&lt;font style=&quot;font-size: 15px;&quot;&gt;&lt;i style=&quot;background-color: transparent; color: light-dark(rgb(0, 0, 0), rgb(255, 255, 255));&quot;&gt;&lt;font style=&quot;&quot; face=&quot;Courier New&quot;&gt;KVL in input Loop&amp;nbsp;&lt;/font&gt;&lt;/i&gt;&lt;i style=&quot;background-color: transparent; color: light-dark(rgb(0, 0, 0), rgb(255, 255, 255));&quot;&gt;&lt;font style=&quot;&quot; face=&quot;Courier New&quot;&gt;to find value of&amp;nbsp;&lt;u&gt;&lt;font style=&quot;color: light-dark(rgb(243, 22, 22), rgb(237, 237, 237));&quot;&gt;IB&lt;/font&gt;&lt;/u&gt;&lt;/font&gt;&lt;/i&gt;&lt;i style=&quot;background-color: transparent; color: light-dark(rgb(0, 0, 0), rgb(255, 255, 255));&quot;&gt;&lt;font style=&quot;&quot; face=&quot;Courier New&quot;&gt;&amp;nbsp;&lt;/font&gt;&lt;/i&gt;&lt;br&gt;&lt;i style=&quot;background-color: transparent; color: light-dark(rgb(0, 0, 0), rgb(255, 255, 255));&quot;&gt;&lt;font style=&quot;&quot; face=&quot;Courier New&quot;&gt;(The loop that contains VBE(NPN) or VEB(PNP) )&amp;nbsp;&amp;nbsp;&lt;/font&gt;&lt;/i&gt;&lt;br&gt;&lt;i style=&quot;font-family: &amp;quot;Courier New&amp;quot;; background-color: transparent; color: light-dark(rgb(0, 0, 0), rgb(255, 255, 255));&quot;&gt;In this KVL we assume Transistor is in the &lt;font style=&quot;color: light-dark(rgb(246, 121, 4), rgb(237, 237, 237));&quot;&gt;Active&lt;/font&gt; state&lt;/i&gt;&lt;br&gt;&lt;/font&gt;&lt;div&gt;&lt;font style=&quot;font-size: 15px;&quot; face=&quot;Courier New&quot;&gt;&lt;i style=&quot;&quot;&gt;&amp;nbsp;( &lt;font style=&quot;color: light-dark(rgb(252, 3, 3), rgb(237, 237, 237));&quot;&gt;VBE(NPN) = VEB(PNP) = 0.7 v&lt;/font&gt; )&lt;/i&gt;&lt;/font&gt;&lt;/div&gt;" style="rounded=0;whiteSpace=wrap;html=1;fillColor=#dae8fc;strokeColor=#6c8ebf;fontStyle=1;strokeWidth=2;align=center;" vertex="1" parent="1">
          <mxGeometry x="372" y="160" width="520" height="90" as="geometry" />
        </mxCell>
        <mxCell id="M4nO-s76nfAPWOyAmxNV-4" value="" style="endArrow=classic;html=1;rounded=0;exitX=0.5;exitY=1;exitDx=0;exitDy=0;entryX=0.5;entryY=0;entryDx=0;entryDy=0;" edge="1" parent="1" source="M4nO-s76nfAPWOyAmxNV-1" target="M4nO-s76nfAPWOyAmxNV-2">
          <mxGeometry width="50" height="50" relative="1" as="geometry">
            <mxPoint x="620" y="380" as="sourcePoint" />
            <mxPoint x="670" y="330" as="targetPoint" />
          </mxGeometry>
        </mxCell>
        <mxCell id="M4nO-s76nfAPWOyAmxNV-16" style="edgeStyle=orthogonalEdgeStyle;rounded=0;orthogonalLoop=1;jettySize=auto;html=1;entryX=0.5;entryY=0;entryDx=0;entryDy=0;" edge="1" parent="1" source="M4nO-s76nfAPWOyAmxNV-5" target="M4nO-s76nfAPWOyAmxNV-12">
          <mxGeometry relative="1" as="geometry" />
        </mxCell>
        <mxCell id="M4nO-s76nfAPWOyAmxNV-17" value="NO" style="edgeLabel;html=1;align=center;verticalAlign=middle;resizable=0;points=[];" vertex="1" connectable="0" parent="M4nO-s76nfAPWOyAmxNV-16">
          <mxGeometry x="-0.249" y="-2" relative="1" as="geometry">
            <mxPoint as="offset" />
          </mxGeometry>
        </mxCell>
        <mxCell id="M4nO-s76nfAPWOyAmxNV-19" style="edgeStyle=orthogonalEdgeStyle;rounded=0;orthogonalLoop=1;jettySize=auto;html=1;entryX=0.5;entryY=0;entryDx=0;entryDy=0;" edge="1" parent="1" source="M4nO-s76nfAPWOyAmxNV-5" target="M4nO-s76nfAPWOyAmxNV-11">
          <mxGeometry relative="1" as="geometry" />
        </mxCell>
        <mxCell id="M4nO-s76nfAPWOyAmxNV-20" value="YES" style="edgeLabel;html=1;align=center;verticalAlign=middle;resizable=0;points=[];" vertex="1" connectable="0" parent="M4nO-s76nfAPWOyAmxNV-19">
          <mxGeometry x="-0.3676" y="3" relative="1" as="geometry">
            <mxPoint as="offset" />
          </mxGeometry>
        </mxCell>
        <mxCell id="M4nO-s76nfAPWOyAmxNV-5" value="&lt;b&gt;IB &amp;gt; 0 ?&lt;/b&gt;" style="rhombus;whiteSpace=wrap;html=1;fillColor=#d5e8d4;strokeColor=#82b366;" vertex="1" parent="1">
          <mxGeometry x="567" y="310" width="130" height="80" as="geometry" />
        </mxCell>
        <mxCell id="M4nO-s76nfAPWOyAmxNV-26" value="" style="edgeStyle=orthogonalEdgeStyle;rounded=0;orthogonalLoop=1;jettySize=auto;html=1;" edge="1" parent="1" source="M4nO-s76nfAPWOyAmxNV-11" target="M4nO-s76nfAPWOyAmxNV-25">
          <mxGeometry relative="1" as="geometry" />
        </mxCell>
        <mxCell id="M4nO-s76nfAPWOyAmxNV-11" value="&lt;font face=&quot;Courier New&quot; style=&quot;font-size: 16px;&quot;&gt;&lt;b style=&quot;&quot;&gt;&lt;i style=&quot;&quot;&gt;KVL in output Loop&amp;nbsp;&lt;/i&gt;&lt;/b&gt;&lt;b style=&quot;&quot;&gt;&lt;i&gt;to find value of&amp;nbsp;&lt;font style=&quot;color: light-dark(rgb(237, 12, 12), rgb(237, 237, 237));&quot;&gt;VCE&lt;/font&gt;(NPN) or&amp;nbsp;&lt;font style=&quot;color: light-dark(rgb(241, 4, 4), rgb(237, 237, 237));&quot;&gt;VEC&lt;/font&gt;(PNP)&lt;/i&gt;&lt;/b&gt;&lt;/font&gt;&lt;div&gt;&lt;font face=&quot;Courier New&quot; style=&quot;font-size: 16px;&quot;&gt;&lt;b style=&quot;&quot;&gt;&lt;i style=&quot;&quot;&gt;( The loop that contains VCE(NPN) or VEC(PNP) )&amp;nbsp;&lt;/i&gt;&lt;/b&gt;&lt;/font&gt;&lt;/div&gt;" style="rounded=0;whiteSpace=wrap;html=1;fillColor=#dae8fc;strokeColor=#6c8ebf;" vertex="1" parent="1">
          <mxGeometry x="-10" y="430" width="570" height="60" as="geometry" />
        </mxCell>
        <mxCell id="M4nO-s76nfAPWOyAmxNV-14" value="" style="edgeStyle=orthogonalEdgeStyle;rounded=0;orthogonalLoop=1;jettySize=auto;html=1;" edge="1" parent="1" source="M4nO-s76nfAPWOyAmxNV-12" target="M4nO-s76nfAPWOyAmxNV-13">
          <mxGeometry relative="1" as="geometry" />
        </mxCell>
        <mxCell id="M4nO-s76nfAPWOyAmxNV-12" value="&lt;font style=&quot;font-size: 16px;&quot;&gt;&lt;b style=&quot;&quot;&gt;Transistor is in the &lt;font style=&quot;color: light-dark(rgb(232, 93, 17), rgb(237, 237, 237));&quot;&gt;&lt;u&gt;OFF&lt;/u&gt; &lt;/font&gt;state&lt;/b&gt;&lt;/font&gt;" style="rounded=0;whiteSpace=wrap;html=1;fillColor=#dae8fc;strokeColor=#6c8ebf;" vertex="1" parent="1">
          <mxGeometry x="870" y="430" width="260" height="60" as="geometry" />
        </mxCell>
        <mxCell id="M4nO-s76nfAPWOyAmxNV-41" style="edgeStyle=orthogonalEdgeStyle;rounded=0;orthogonalLoop=1;jettySize=auto;html=1;exitX=0.5;exitY=1;exitDx=0;exitDy=0;entryX=1;entryY=0.5;entryDx=0;entryDy=0;" edge="1" parent="1" source="M4nO-s76nfAPWOyAmxNV-13" target="M4nO-s76nfAPWOyAmxNV-39">
          <mxGeometry relative="1" as="geometry" />
        </mxCell>
        <mxCell id="M4nO-s76nfAPWOyAmxNV-13" value="&lt;font style=&quot;color: light-dark(rgb(0, 0, 0), rgb(255, 142, 142)); font-size: 15px;&quot;&gt;&lt;b style=&quot;&quot;&gt;&lt;i style=&quot;&quot;&gt;print(&amp;nbsp;&lt;span style=&quot;color: rgb(240, 15, 15);&quot;&gt;&lt;u&gt;IB = 0&lt;/u&gt;&amp;nbsp;,&amp;nbsp;&lt;u&gt;IC = 0&amp;nbsp;&lt;/u&gt;&lt;/span&gt;)&lt;/i&gt;&lt;/b&gt;&lt;/font&gt;" style="rounded=0;whiteSpace=wrap;html=1;fillColor=#dae8fc;strokeColor=#6c8ebf;" vertex="1" parent="1">
          <mxGeometry x="920" y="600" width="280" height="60" as="geometry" />
        </mxCell>
        <mxCell id="M4nO-s76nfAPWOyAmxNV-28" value="" style="edgeStyle=orthogonalEdgeStyle;rounded=0;orthogonalLoop=1;jettySize=auto;html=1;" edge="1" parent="1" source="M4nO-s76nfAPWOyAmxNV-25" target="M4nO-s76nfAPWOyAmxNV-27">
          <mxGeometry relative="1" as="geometry" />
        </mxCell>
        <mxCell id="M4nO-s76nfAPWOyAmxNV-29" value="NO" style="edgeLabel;html=1;align=center;verticalAlign=middle;resizable=0;points=[];" vertex="1" connectable="0" parent="M4nO-s76nfAPWOyAmxNV-28">
          <mxGeometry x="-0.2898" y="-1" relative="1" as="geometry">
            <mxPoint as="offset" />
          </mxGeometry>
        </mxCell>
        <mxCell id="M4nO-s76nfAPWOyAmxNV-31" value="" style="edgeStyle=orthogonalEdgeStyle;rounded=0;orthogonalLoop=1;jettySize=auto;html=1;" edge="1" parent="1" source="M4nO-s76nfAPWOyAmxNV-25" target="M4nO-s76nfAPWOyAmxNV-30">
          <mxGeometry relative="1" as="geometry" />
        </mxCell>
        <mxCell id="M4nO-s76nfAPWOyAmxNV-32" value="YES" style="edgeLabel;html=1;align=center;verticalAlign=middle;resizable=0;points=[];" vertex="1" connectable="0" parent="M4nO-s76nfAPWOyAmxNV-31">
          <mxGeometry x="-0.43" y="-1" relative="1" as="geometry">
            <mxPoint as="offset" />
          </mxGeometry>
        </mxCell>
        <mxCell id="M4nO-s76nfAPWOyAmxNV-25" value="&lt;b&gt;VCE or VEC &amp;gt; 0.2 ?&lt;/b&gt;" style="rhombus;whiteSpace=wrap;html=1;fillColor=#d5e8d4;strokeColor=#82b366;rounded=0;" vertex="1" parent="1">
          <mxGeometry x="230" y="560" width="170" height="80" as="geometry" />
        </mxCell>
        <mxCell id="M4nO-s76nfAPWOyAmxNV-36" value="" style="edgeStyle=orthogonalEdgeStyle;rounded=0;orthogonalLoop=1;jettySize=auto;html=1;" edge="1" parent="1" source="M4nO-s76nfAPWOyAmxNV-27" target="M4nO-s76nfAPWOyAmxNV-35">
          <mxGeometry relative="1" as="geometry" />
        </mxCell>
        <mxCell id="M4nO-s76nfAPWOyAmxNV-27" value="&lt;font face=&quot;Courier New&quot; style=&quot;font-size: 16px;&quot;&gt;&lt;b style=&quot;&quot;&gt;KVL in input Loop to find value of &lt;font style=&quot;color: light-dark(rgb(255, 0, 0), rgb(237, 237, 237));&quot;&gt;&lt;u&gt;IB&lt;/u&gt;&lt;/font&gt;&lt;/b&gt;&lt;/font&gt;&lt;div&gt;&lt;font face=&quot;Courier New&quot; style=&quot;font-size: 16px;&quot;&gt;&lt;b&gt;&amp;nbsp;This Time we assume Transistor is in the &lt;font style=&quot;color: light-dark(rgb(255, 102, 0), rgb(237, 237, 237));&quot;&gt;Saturation &lt;/font&gt;&lt;font style=&quot;color: light-dark(rgb(0, 0, 0), rgb(237, 237, 237));&quot;&gt;state&lt;/font&gt;&lt;/b&gt;&lt;/font&gt;&lt;/div&gt;&lt;div&gt;&lt;font face=&quot;Courier New&quot; style=&quot;font-size: 16px;&quot;&gt;&lt;b style=&quot;&quot;&gt;&lt;font color=&quot;rgba(0, 0, 0, 0)&quot; style=&quot;color: light-dark(rgb(0, 0, 0), rgb(237, 237, 237));&quot;&gt;&lt;/font&gt;&lt;font style=&quot;&quot;&gt;&lt;span style=&quot;color: light-dark(rgb(0, 0, 0), rgb(237, 237, 237));&quot;&gt;&amp;nbsp;( &lt;/span&gt;&lt;font style=&quot;color: light-dark(rgb(255, 0, 0), rgb(237, 237, 237));&quot;&gt;VBE(NPN) = VEB(PNP = 0.8 v&amp;nbsp;&lt;/font&gt;&lt;span style=&quot;color: light-dark(rgb(0, 0, 0), rgb(237, 237, 237));&quot;&gt;)&lt;/span&gt;&lt;/font&gt;&lt;/b&gt;&lt;/font&gt;&lt;/div&gt;" style="whiteSpace=wrap;html=1;fillColor=#dae8fc;strokeColor=#6c8ebf;rounded=0;" vertex="1" parent="1">
          <mxGeometry x="402" y="770" width="578" height="75" as="geometry" />
        </mxCell>
        <mxCell id="M4nO-s76nfAPWOyAmxNV-34" value="" style="edgeStyle=orthogonalEdgeStyle;rounded=0;orthogonalLoop=1;jettySize=auto;html=1;" edge="1" parent="1" source="M4nO-s76nfAPWOyAmxNV-30" target="M4nO-s76nfAPWOyAmxNV-33">
          <mxGeometry relative="1" as="geometry" />
        </mxCell>
        <mxCell id="M4nO-s76nfAPWOyAmxNV-30" value="&lt;font style=&quot;font-size: 16px;&quot;&gt;&lt;b style=&quot;&quot;&gt;Transistor is in the &lt;font style=&quot;color: light-dark(rgb(240, 130, 5), rgb(237, 237, 237));&quot;&gt;&lt;u&gt;Active&lt;/u&gt; &lt;/font&gt;state&lt;/b&gt;&lt;/font&gt;" style="whiteSpace=wrap;html=1;fillColor=#dae8fc;strokeColor=#6c8ebf;rounded=0;" vertex="1" parent="1">
          <mxGeometry x="-20" y="675" width="240" height="60" as="geometry" />
        </mxCell>
        <mxCell id="M4nO-s76nfAPWOyAmxNV-42" style="edgeStyle=orthogonalEdgeStyle;rounded=0;orthogonalLoop=1;jettySize=auto;html=1;exitX=0.5;exitY=1;exitDx=0;exitDy=0;entryX=0;entryY=0.5;entryDx=0;entryDy=0;" edge="1" parent="1" source="M4nO-s76nfAPWOyAmxNV-33" target="M4nO-s76nfAPWOyAmxNV-39">
          <mxGeometry relative="1" as="geometry" />
        </mxCell>
        <mxCell id="M4nO-s76nfAPWOyAmxNV-33" value="&lt;b&gt;&lt;font face=&quot;Helvetica&quot; style=&quot;font-size: 14px;&quot;&gt;&lt;i style=&quot;&quot;&gt;print( &lt;font style=&quot;color: light-dark(rgb(241, 4, 4), rgb(237, 237, 237));&quot;&gt;&lt;u&gt;IB&lt;/u&gt; , &lt;u&gt;IC = Beta * IB&lt;/u&gt; , &lt;u&gt;VCE&lt;/u&gt; or &lt;u&gt;VEC&lt;/u&gt;&lt;/font&gt; )&lt;/i&gt;&lt;/font&gt;&lt;/b&gt;" style="whiteSpace=wrap;html=1;fillColor=#dae8fc;strokeColor=#6c8ebf;rounded=0;" vertex="1" parent="1">
          <mxGeometry x="20" y="810" width="280" height="60" as="geometry" />
        </mxCell>
        <mxCell id="M4nO-s76nfAPWOyAmxNV-38" value="" style="edgeStyle=orthogonalEdgeStyle;rounded=0;orthogonalLoop=1;jettySize=auto;html=1;" edge="1" parent="1" source="M4nO-s76nfAPWOyAmxNV-35" target="M4nO-s76nfAPWOyAmxNV-37">
          <mxGeometry relative="1" as="geometry" />
        </mxCell>
        <mxCell id="M4nO-s76nfAPWOyAmxNV-35" value="&lt;font face=&quot;Courier New&quot; style=&quot;font-size: 16px;&quot;&gt;&lt;b style=&quot;&quot;&gt;&lt;i style=&quot;&quot;&gt;KVL in output Loop&amp;nbsp;&lt;/i&gt;&lt;/b&gt;&lt;b style=&quot;&quot;&gt;&lt;i&gt;to find value of &lt;font color=&quot;#ed0c0c&quot;&gt;&lt;u&gt;IC&lt;/u&gt;&lt;/font&gt;&lt;/i&gt;&lt;/b&gt;&lt;/font&gt;&lt;div&gt;&lt;span style=&quot;font-size: 16px;&quot;&gt;&lt;b style=&quot;&quot;&gt;&lt;i style=&quot;&quot;&gt;&lt;font face=&quot;Courier New&quot;&gt;&lt;font style=&quot;color: light-dark(rgb(0, 0, 0), rgb(255, 145, 145));&quot;&gt;This Time we assume Transistor is in the &lt;/font&gt;&lt;font style=&quot;color: light-dark(rgb(255, 102, 0), rgb(255, 145, 145));&quot;&gt;Saturation &lt;/font&gt;&lt;font style=&quot;color: light-dark(rgb(0, 0, 0), rgb(255, 145, 145));&quot;&gt;state&lt;/font&gt;&lt;br&gt;&lt;/font&gt;&lt;/i&gt;&lt;/b&gt;&lt;/span&gt;&lt;div&gt;&lt;font face=&quot;Courier New&quot; style=&quot;font-size: 16px;&quot;&gt;&lt;b style=&quot;&quot;&gt;&lt;i style=&quot;&quot;&gt;(&amp;nbsp;&lt;/i&gt;&lt;/b&gt;&lt;/font&gt;&lt;b style=&quot;background-color: transparent; color: light-dark(rgb(0, 0, 0), rgb(255, 255, 255)); font-family: &amp;quot;Courier New&amp;quot;; font-size: 16px;&quot;&gt;&lt;font style=&quot;color: light-dark(rgb(255, 0, 0), rgb(237, 237, 237));&quot;&gt;VCE(NPN) = VEC(PNP = 0.2 v&lt;/font&gt;&lt;/b&gt;&lt;b style=&quot;font-size: 16px; font-family: &amp;quot;Courier New&amp;quot;; background-color: transparent; color: light-dark(rgb(0, 0, 0), rgb(255, 255, 255));&quot;&gt;&lt;i&gt;&amp;nbsp;)&amp;nbsp;&lt;/i&gt;&lt;/b&gt;&lt;/div&gt;&lt;/div&gt;" style="whiteSpace=wrap;html=1;fillColor=#dae8fc;strokeColor=#6c8ebf;rounded=0;" vertex="1" parent="1">
          <mxGeometry x="380" y="940" width="590" height="60" as="geometry" />
        </mxCell>
        <mxCell id="M4nO-s76nfAPWOyAmxNV-40" value="" style="edgeStyle=orthogonalEdgeStyle;rounded=0;orthogonalLoop=1;jettySize=auto;html=1;" edge="1" parent="1" source="M4nO-s76nfAPWOyAmxNV-37" target="M4nO-s76nfAPWOyAmxNV-39">
          <mxGeometry relative="1" as="geometry" />
        </mxCell>
        <mxCell id="M4nO-s76nfAPWOyAmxNV-37" value="&lt;b&gt;&lt;font style=&quot;font-size: 14px;&quot; face=&quot;Helvetica&quot;&gt;&lt;i&gt;print(&amp;nbsp;&lt;font style=&quot;color: light-dark(rgb(241, 4, 4), rgb(237, 237, 237));&quot;&gt;&lt;u&gt;IB&lt;/u&gt;&amp;nbsp;,&amp;nbsp;&lt;u&gt;IC &lt;/u&gt;&amp;nbsp;,&amp;nbsp;&lt;u&gt;VCE =&amp;nbsp;VEC = 0.2&lt;/u&gt;&lt;/font&gt;&amp;nbsp;)&lt;/i&gt;&lt;/font&gt;&lt;/b&gt;" style="whiteSpace=wrap;html=1;fillColor=#dae8fc;strokeColor=#6c8ebf;rounded=0;" vertex="1" parent="1">
          <mxGeometry x="450" y="1080" width="420" height="60" as="geometry" />
        </mxCell>
        <mxCell id="M4nO-s76nfAPWOyAmxNV-39" value="&lt;b&gt;&lt;font style=&quot;font-size: 19px;&quot;&gt;END&lt;/font&gt;&lt;/b&gt;" style="ellipse;whiteSpace=wrap;html=1;fillColor=#dae8fc;strokeColor=#6c8ebf;rounded=0;" vertex="1" parent="1">
          <mxGeometry x="605" y="1190" width="110" height="80" as="geometry" />
        </mxCell>
      </root>
    </mxGraphModel>
  </diagram>
</mxfile>
